<svg version="1.1" xmlns="http://www.w3.org/2000/svg" viewBox="-225.27999420166014 -1034.2400390625 4933.632421875 1350.6560424804688"><desc>Created with Snap</desc><defs></defs><g><g><g transform="matrix(1.024,0,0,-1.024,0,0)"><path d="M80 630L269 630Q363 630 415 589Q468 549 468 471Q468 413 435 380Q403 348 354 335Q382 330 406 317Q430 305 448 285Q466 265 476 237Q487 210 487 176Q487 137 470 104Q453 72 423 49Q393 26 352 13Q311 0 262 0L80 0L80 630ZM172 556L172 367L247 367Q272 367 295 371Q318 375 335 386Q353 397 363 415Q374 434 374 464Q374 512 341 534Q309 556 255 556L172 556ZM172 294L172 74L252 74Q280 74 305 79Q330 85 349 98Q368 111 379 132Q391 154 391 185Q391 216 377 236Q364 257 342 270Q320 283 292 288Q264 294 236 294L172 294ZM694 340L694 0L606 0L606 710L694 710L694 410Q727 439 767 458Q807 477 855 477Q894 477 923 465Q952 454 970 433Q989 413 998 385Q1008 357 1008 324L1008 0L920 0L920 302Q920 356 898 380Q876 405 831 405Q797 405 762 388Q728 371 694 340ZM1184 364L1150 428Q1174 440 1195 449Q1216 459 1237 465Q1258 471 1280 474Q1302 477 1328 477Q1367 477 1399 468Q1432 460 1455 440Q1479 420 1492 387Q1505 355 1505 306L1505 0L1432 0L1421 52L1419 52Q1388 19 1351 5Q1314 -9 1269 -9Q1235 -9 1206 0Q1178 10 1157 27Q1136 45 1124 70Q1113 95 1113 126Q1113 200 1171 238Q1230 277 1326 277L1416 277L1416 317Q1416 368 1390 386Q1364 405 1320 405Q1294 405 1260 396Q1227 388 1184 364ZM1417 121L1417 217L1343 215Q1268 213 1236 188Q1205 164 1205 129Q1205 108 1212 93Q1219 79 1230 71Q1242 63 1257 59Q1273 56 1290 56Q1323 56 1357 71Q1391 87 1417 121ZM1719 0L1632 0L1632 470L1698 470L1713 376Q1730 421 1769 449Q1808 477 1859 477Q1885 477 1902 473Q1919 469 1933 463L1916 386Q1904 392 1889 396Q1875 400 1855 400Q1826 400 1801 390Q1777 380 1758 360Q1740 340 1729 310Q1719 281 1719 243L1719 0ZM2045 364L2011 428Q2035 440 2056 449Q2077 459 2098 465Q2119 471 2141 474Q2163 477 2189 477Q2228 477 2260 468Q2293 460 2316 440Q2340 420 2353 387Q2366 355 2366 306L2366 0L2293 0L2282 52L2280 52Q2249 19 2212 5Q2175 -9 2130 -9Q2096 -9 2067 0Q2039 10 2018 27Q1997 45 1985 70Q1974 95 1974 126Q1974 200 2032 238Q2091 277 2187 277L2277 277L2277 317Q2277 368 2251 386Q2225 405 2181 405Q2155 405 2121 396Q2088 388 2045 364ZM2278 121L2278 217L2204 215Q2129 213 2097 188Q2066 164 2066 129Q2066 108 2073 93Q2080 79 2091 71Q2103 63 2118 59Q2134 56 2151 56Q2184 56 2218 71Q2252 87 2278 121ZM2742 470L2742 404L2604 404L2604 131Q2604 96 2621 84Q2639 72 2667 72Q2687 72 2711 76Q2735 81 2753 87L2767 20Q2747 12 2716 6Q2685 0 2651 0Q2581 0 2549 30Q2517 61 2517 119L2517 404L2447 404L2447 470L2517 470L2517 620L2604 620L2604 470L2742 470ZM3048 639Q3094 639 3137 631Q3180 624 3222 604L3200 528Q3157 548 3122 556Q3088 565 3052 565Q2995 565 2962 540Q2929 515 2929 470Q2929 432 2953 409Q2978 386 3034 369L3097 349Q3183 322 3218 275Q3254 229 3254 171Q3254 130 3237 96Q3221 63 3191 39Q3162 16 3122 3Q3082 -9 3034 -9Q2986 -9 2936 -1Q2887 8 2838 31L2860 106Q2903 85 2944 75Q2985 65 3030 65Q3084 65 3122 90Q3160 115 3160 164Q3160 182 3154 197Q3149 213 3135 227Q3122 241 3099 253Q3076 265 3041 276L2978 296Q2909 318 2872 356Q2835 394 2835 459Q2835 542 2889 590Q2944 639 3048 639ZM3466 0L3378 0L3378 470L3466 470L3466 0ZM3422 591Q3399 591 3382 606Q3366 622 3366 645Q3366 668 3382 684Q3399 700 3422 700Q3444 700 3461 684Q3478 668 3478 645Q3478 622 3461 606Q3444 591 3422 591ZM3698 341L3698 0L3610 0L3610 470L3678 470L3691 405Q3724 438 3762 457Q3800 477 3853 477Q3903 477 3935 456Q3967 436 3983 400Q4018 437 4060 457Q4102 477 4153 477Q4225 477 4261 436Q4298 396 4298 324L4298 0L4210 0L4210 308Q4210 355 4190 380Q4170 405 4124 405Q4056 405 3997 344Q3998 339 3998 334Q3998 329 3998 324L3998 0L3910 0L3910 308Q3910 355 3890 380Q3870 405 3824 405Q3756 405 3698 341Z" fill="#FFFFFF" style=""></path></g></g></g></svg>
